<svg xmlns="http://www.w3.org/2000/svg" viewBox="0 0 100 100">
  <path fill="#202124" d="M84.2,31.8c-2.4-11.5-12.7-20.2-24.6-20.2c-12.7,0-23.2,9.7-24.6,22.1c-13.3,2.4-23.1,13-23.1,25.9 c0,14.5,12.1,26.4,26.9,26.4h42.2c12.1,0,21.9-9.1,21.9-20.2C103,45.2,95.1,34.8,84.2,31.8z M28.8,57.7c0-1.8,1.5-3.2,3.2-3.2 s3.2,1.5,3.2,3.2c0,1.8-1.5,3.2-3.2,3.2S28.8,59.5,28.8,57.7z M38.5,57.7c0-1.8,1.5-3.2,3.2-3.2s3.2,1.5,3.2,3.2 c0,1.8-1.5,3.2-3.2,3.2S38.5,59.5,38.5,57.7z M58.4,70.9c-1.4-1.2-3.6-1.1-4.9,0.3c-1,1.1-1.2,2.6-0.5,3.9 c1,1.8,3.1,2.9,5.4,2.9s4.4-1.1,5.4-2.9c0.7-1.3,0.5-2.8-0.5-3.9C62,69.8,59.8,69.7,58.4,70.9z M61.5,57.7c0-1.8,1.5-3.2,3.2-3.2 s3.2,1.5,3.2,3.2c0,1.8-1.5,3.2-3.2,3.2S61.5,59.5,61.5,57.7z M71.2,57.7c0-1.8,1.5-3.2,3.2-3.2c1.8,0,3.2,1.5,3.2,3.2 c0,1.8-1.5,3.2-3.2,3.2C72.7,60.9,71.2,59.5,71.2,57.7z"/>
</svg>
